# xmcd CD database file
#
# Track frame offsets:
#	150
#	16362
#	29125
#	41931
#	58515
#	79121
#	89729
#	106846
#	125921
#	137648
#	151287
#	164816
#
# Disc length: 2416 seconds
#
# Revision: 0
# Processed by: cddbd v1.5.1PL0 Copyright (c) Steve Scherf et al.
# Submitted via: CDex 1.51
#
DISCID=ac096e0c
DTITLE=Perry (Blocker) Sand - The Pavilion
DYEAR=2005
DGENRE=Country
TTITLE0=Something about
TTITLE1=Red sails in the sunset
TTITLE2=Keep me waiting
TTITLE3=Romantic illusion
TTITLE4=Somewhere
TTITLE5=I wish you some time
TTITLE6=The summer's gone
TTITLE7=Cold out there
TTITLE8=Havana girls
TTITLE9=New Orleans woman
TTITLE10=Jamaica farewell
TTITLE11=Together
EXTD=YEAR: 2005
EXTT0=
EXTT1=
EXTT2=
EXTT3=
EXTT4=
EXTT5=
EXTT6=
EXTT7=
EXTT8=
EXTT9=
EXTT10=
EXTT11=
PLAYORDER=
